inDegrees=yes
name=ik_S49_A02_T01
DataType=double
version=3
OpenSimVersion=4.3-2021-08-27-4bc7ad9
endheader
time	pelvis_tilt	pelvis_list	pelvis_rotation	pelvis_tx	pelvis_ty	pelvis_tz	hip_flexion_r	hip_adduction_r	hip_rotation_r	knee_angle_r	knee_angle_r_beta	ankle_angle_r	subtalar_angle_r	mtp_angle_r	hip_flexion_l	hip_adduction_l	hip_rotation_l	knee_angle_l	knee_angle_l_beta	ankle_angle_l	subtalar_angle_l	mtp_angle_l	lumbar_extension	lumbar_bending	lumbar_rotation	arm_flex_r	arm_add_r	arm_rot_r	elbow_flex_r	pro_sup_r	wrist_flex_r	wrist_dev_r	arm_flex_l	arm_add_l	arm_rot_l	elbow_flex_l	pro_sup_l	wrist_flex_l	wrist_dev_l
34.97999999999987	-1.165010368405612	1.587972526338893	-88.90109894520296	0	0.9399999999999999	0	-3.360290204463329	2.388459063013622	-3.101886024625935	26.78179725224853	0.4674305416533072	0	0	0	11.62869165651237	0.7002014831310128	-7.461259959783886	7.713269066710963	0.1346219413063365	0	0	0	0	0	0	37.30351736895365	-37.30351736895365	4.780788664416606	82.06136007856838	85.21921160060907	0	0	37.30351736895365	-37.30351736895365	4.780788664416606	82.06136007856838	85.21921160056897	0	0
34.99999999999987	-1.088296614609459	1.624694280768349	-89.30570131890171	0	0.9399999999999999	0	-3.327294879931963	2.240681656807272	-2.773566142063126	27.50014601061708	0.4799680926644515	0	0	0	11.92076408992396	0.71686239582471	-7.714987140151395	7.95775536299762	0.138889032152545	0	0	0	0	0	0	37.30554609719307	-37.30554609719307	4.780904608258038	82.06291583207772	85.21909565677304	0	0	37.30554609719307	-37.30554609719307	4.780904608258038	82.06291583207772	85.21909565673293	0	0
35.01999999999988	-1.045060748986085	1.663190733769932	-89.50928435585432	0	0.9399999999999999	0	-5.096296251393293	2.264574247287143	-3.914488745258671	26.74655802375211	0.4668155010901821	0	0	0	12.34711373580615	0.7647307773924549	-7.864311016312531	8.288443254010669	0.1446606246471989	0	0	0	0	0	0	37.30774037608468	-37.30774037608468	4.781030163746197	82.06460056057254	85.21897010129071	0	0	37.30774037608468	-37.30774037608468	4.781030163746197	82.06460056057254	85.21897010125065	0	0
35.03999999999988	-1.037796400652889	1.621597601960663	-89.8964419072271	0	0.9399999999999999	0	-5.173010392684374	2.190061653654139	-3.638882330799803	27.41173418825453	0.4784250152665367	0	0	0	12.76860966159231	0.7035559775530733	-7.517218079082127	8.772321100997161	0.1531058862545745	0	0	0	0	0	0	37.30969674386555	-37.30969674386555	4.781142067555044	82.06610210546317	85.21885819748714	0	0	37.30969674386555	-37.30969674386555	4.781142067555044	82.06610210546317	85.21885819744709	0	0
35.05999999999988	-1.117569518073973	1.527297594497778	-90.12872319050085	0	0.9399999999999999	0	-7.812898250447002	2.777892853453651	-4.74279377839247	25.08665880800435	0.437844794524112	0	0	0	13.09929387268423	0.5070690522191252	-6.805211628699004	9.094588919217058	0.1587305207557302	0	0	0	0	0	0	37.31173245295972	-37.31173245295972	4.781258512518662	82.06766458323077	85.21874175252897	0	0	37.31173245295972	-37.31173245295972	4.781258512518662	82.06766458323077	85.21874175248894	0	0
35.07999999999988	-1.150928049746467	1.484430103678239	-90.27064018954289	0	0.9399999999999999	0	-8.789621753367467	2.904303386046856	-4.893265741484855	24.13370122048683	0.4212125469900691	0	0	0	13.071378077071	0.4346360991841589	-6.870057291316899	9.098155593849732	0.1587927709714178	0	0	0	0	0	0	37.31364161694633	-37.31364161694633	4.781367582194575	82.06912809214819	85.21863268285814	0	0	37.31364161694633	-37.31364161694633	4.781367582194575	82.06912809214819	85.21863268281814	0	0
35.09999999999989	-1.271184967948207	1.221999800993211	-90.90107343194524	0	0.9399999999999999	0	-9.858212747426389	2.964509259700267	-4.483128252640713	22.58359744913872	0.3941581324324633	0	0	0	13.24664675276807	0.05962265464521178	-7.492959459480073	9.504110882250909	0.1658780273699015	0	0	0	0	0	0	37.31506102980646	-37.31506102980646	4.781448363192431	82.07021200837764	85.21855190186405	0	0	37.31506102980646	-37.31506102980646	4.781448363192431	82.07021200837764	85.21855190182404	0	0
35.11999999999989	-1.268453676310107	1.155084060396782	-91.18049480311537	0	0.9399999999999999	0	-10.99993303785013	3.308254038835244	-4.242408331348932	20.41067151749439	0.3562334205233045	0	0	0	13.67652924041321	0.02508766319254901	-8.407695080072246	9.946921646672049	0.1736065331723233	0	0	0	0	0	0	37.31791079057201	-37.31791079057201	4.781609859124211	82.0723789257995	85.2183904059398	0	0	37.31791079057201	-37.31791079057201	4.781609859124211	82.0723789257995	85.21839040589987	0	0
35.13999999999989	-1.252871711229647	1.074227826531042	-91.29086041710725	0	0.9399999999999999	0	-11.63758965976349	3.445398694205616	-4.446175711106274	19.32107981635746	0.337216457836059	0	0	0	14.05229502112214	-0.02818149514243598	-8.27584527318216	10.14844987200229	0.1771238642400371	0	0	0	0	0	0	37.31953357853686	-37.31953357853686	4.781702497877448	82.0736219572934	85.21829776719095	0	0	37.31953357853686	-37.31953357853686	4.781702497877448	82.0736219572934	85.21829776715101	0	0
35.1599999999999	-1.183298569066867	0.9057279921401561	-91.47009963218322	0	0.9399999999999999	0	-12.21714985527799	3.534362583217434	-4.406505214100083	16.84324777644992	0.2939701304282649	0	0	0	14.79895387775863	-0.1069713066991296	-7.967425466078755	10.42173553398096	0.1818935988400571	0	0	0	0	0	0	37.32126232517975	-37.32126232517975	4.781801039907936	82.07494419313676	85.21819922516507	0	0	37.32126232517975	-37.32126232517975	4.781801039907936	82.07494419313676	85.21819922512512	0	0
35.1799999999999	-1.061711360357511	0.7199355332592687	-91.59641124092333	0	0.9399999999999999	0	-12.99263328956683	3.349590212338201	-4.629057353510826	15.55917652151655	0.2715588591994622	0	0	0	15.11554607658201	-0.1921606856428387	-8.113455225764071	10.91366311887041	0.190479354877762	0	0	0	0	0	0	37.32292525946389	-37.32292525946389	4.781895651515255	82.07621368333561	85.21810461356218	0	0	37.32292525946389	-37.32292525946389	4.781895651515255	82.07621368333561	85.21810461352229	0	0
35.1999999999999	-0.9238446753259366	0.5332443321353996	-91.69333520841411	0	0.9399999999999999	0	-13.14457463781716	3.233324391549589	-4.510705482543254	15.21016544049736	0.2654674667097326	0	0	0	15.41275283723183	-0.1303433722014398	-8.197586160281999	10.96033030521891	0.1912938509321849	0	0	0	0	0	0	37.3241031144374	-37.3241031144374	4.781962672303077	82.07711296221591	85.21803759277748	0	0	37.3241031144374	-37.3241031144374	4.781962672303077	82.07711296221591	85.21803759273762	0	0
35.21999999999991	-0.8046024405760489	0.2973577326483886	-91.70168829805255	0	0.9399999999999999	0	-13.64808596996515	3.239809936103943	-4.420193875742581	14.12676584846851	0.2465585767140658	0	0	0	15.68920702593262	-0.1057882651982236	-8.442197059399525	11.04209006761211	0.1927208279815945	0	0	0	0	0	0	37.32550668646422	-37.32550668646422	4.782042504512573	82.07818414183706	85.21795776057174	0	0	37.32550668646422	-37.32550668646422	4.782042504512573	82.07818414183706	85.21795776053187	0	0
35.23999999999991	-0.5871734888047223	-0.1307661037786738	-91.50681877469796	0	0.9399999999999999	0	-14.04415186102166	3.105733334082546	-4.702089056241474	13.34766225611695	0.2329606538134154	0	0	0	15.77306966914538	0.0280841697015756	-8.630016875929279	11.10073133747563	0.1937443112182635	0	0	0	0	0	0	37.32677812119682	-37.32677812119682	4.782114878929375	82.07915525529474	85.2178853861583	0	0	37.32677812119682	-37.32677812119682	4.782114878929375	82.07915525529474	85.21788538611845	0	0
